<svg id="Layer_1" data-name="Layer 1" xmlns="http://www.w3.org/2000/svg" viewBox="0 0 177.06 212.6"><defs><style>.cls-1{fill:#132028;}</style></defs><title>peltarion_logotype_vertical_black</title><path class="cls-1" d="M131.91,45.41v86a6.11,6.11,0,0,0,.12,1.2h0a7.9,7.9,0,0,0,.32,1.08l.09.2a6.36,6.36,0,0,0,.5,1l0,0c.21.34,5.91,8.68,5.91,8.68l-2.65,6.51-44-4s5.42-7.12,5.64-7.45a6.63,6.63,0,0,0,.92-2.24,7.45,7.45,0,0,0,.11-1.25v-86L77,50.78v77.16a5.77,5.77,0,0,0,.1,1.1h0a5.57,5.57,0,0,0,.27,1,1.34,1.34,0,0,0,.07.18,5.91,5.91,0,0,0,.42.88l0,0c.18.3,4.42,7.77,4.42,7.77l-8,5.39-35.19-3.69,4.16-6.76a6.13,6.13,0,0,0,.75-2,6.12,6.12,0,0,0,.1-1.14V45.57a6.12,6.12,0,0,0-.1-1.14,5.26,5.26,0,0,0-.29-1.07,5.49,5.49,0,0,0-.46-1c-.19-.3-4.16-7.86-4.16-7.86l97.05-8.91,2.65,6.52s-5.71,9.46-5.94,9.81h0a6.66,6.66,0,0,0-.57,1.09h0a6.84,6.84,0,0,0-.35,1.17h0a6.11,6.11,0,0,0-.12,1.2M177.05,0H1V176.08H177.05Z"/><path class="cls-1" d="M15,191.06a6.21,6.21,0,0,0-2.27-1.53,9.33,9.33,0,0,0-3.65-.61H0A.06.06,0,0,0,0,189a4.89,4.89,0,0,1,1,3.05v16.81a4.89,4.89,0,0,1-1,3.06s0,0,0,.07H4.13V201.83h5a9.53,9.53,0,0,0,3.65-.6A6.21,6.21,0,0,0,15,199.7a5.19,5.19,0,0,0,1.15-2.09,8.09,8.09,0,0,0,.33-2.23,8.21,8.21,0,0,0-.33-2.24A5.16,5.16,0,0,0,15,191.06Zm-2.27,6.23a2.94,2.94,0,0,1-1.12,1.12,5,5,0,0,1-1.6.54,11,11,0,0,1-1.81.15H4.13v-7.44H8.24a11,11,0,0,1,1.81.15,5,5,0,0,1,1.6.54,2.94,2.94,0,0,1,1.12,1.12,4.46,4.46,0,0,1,0,3.82Z"/><path class="cls-1" d="M80.9,188.92s-.05,0-.06,0a0,0,0,0,0,0,.07c.83.83-.21,2.37-.42,3.09L71.65,212H75.3l2.28-5.7h11l2.31,5.7h3.65l-9.87-23.09Zm-2.21,14.65L83.06,193h.06l4.31,10.6Z"/><path class="cls-1" d="M110.75,200.77a6.4,6.4,0,0,0,1.79-1.4,6,6,0,0,0,1.52-4,8.21,8.21,0,0,0-.33-2.24,5.18,5.18,0,0,0-1.16-2.08,6.17,6.17,0,0,0-2.26-1.53,9.05,9.05,0,0,0-3.33-.6H97.55a.06.06,0,0,0,0,.08,4.77,4.77,0,0,1,1,2.94v17a4.81,4.81,0,0,1-1,3s0,0,0,.07h4.12V201.83h3.49L111,212h3.92l-6.56-10.53A6.18,6.18,0,0,0,110.75,200.77Zm-5-1.67h-4.11v-7.44h4.11a11.05,11.05,0,0,1,1.81.15,4.89,4.89,0,0,1,1.59.54,2.9,2.9,0,0,1,1.13,1.12,4.55,4.55,0,0,1,0,3.82,3,3,0,0,1-1.13,1.12,4.89,4.89,0,0,1-1.59.54A11.05,11.05,0,0,1,105.78,199.1Z"/><rect class="cls-1" x="120.13" y="188.93" width="3.13" height="23.08"/><path class="cls-1" d="M173.88,188.92v19h-.07l-12.71-19H156a.06.06,0,0,0,0,.08,4.9,4.9,0,0,1,1,3.05h0V212h3.13V193h.07L173,212h4V188.92Z"/><path class="cls-1" d="M73.66,192.72l-.88-3.79H54.65l-.88,3.79s0,.09.08.05a4.88,4.88,0,0,1,3-.9h5.33V212h3.13V191.87h5.21a4.88,4.88,0,0,1,3,.9A0,0,0,0,0,73.66,192.72Z"/><path class="cls-1" d="M149.33,191.78a12.07,12.07,0,0,0-4-2.52,14.21,14.21,0,0,0-10.06,0,12.07,12.07,0,0,0-4,2.52,11.32,11.32,0,0,0-2.61,3.85,13.06,13.06,0,0,0,0,9.68,11.28,11.28,0,0,0,2.61,3.84,12.09,12.09,0,0,0,4,2.53,14.36,14.36,0,0,0,10.06,0,12.09,12.09,0,0,0,4-2.53,11.28,11.28,0,0,0,2.61-3.84,13.06,13.06,0,0,0,0-9.68A11.32,11.32,0,0,0,149.33,191.78Zm-.56,12.27A8.7,8.7,0,0,1,144,209a9.84,9.84,0,0,1-7.39,0,8.79,8.79,0,0,1-2.87-2,9,9,0,0,1-1.88-2.93,10.07,10.07,0,0,1,0-7.17,8.93,8.93,0,0,1,1.88-2.92,8.64,8.64,0,0,1,2.87-2,9.84,9.84,0,0,1,7.39,0,8.58,8.58,0,0,1,2.88,2,8.75,8.75,0,0,1,1.87,2.92,9.93,9.93,0,0,1,0,7.17Z"/><path class="cls-1" d="M37.77,207.6c-1.56,1.56-4.93,1.46-4.93,1.46h-9v-7.41h8v-2.93H23.8v-6.87h9.85s2.08-.07,3,.89a0,0,0,0,0,.08-.05l-.87-3.78H20.67V212h15.8l1.43-4.33A.08.08,0,0,0,37.77,207.6Z"/><path class="cls-1" d="M58,207.6c-1.56,1.56-4.94,1.46-4.94,1.46H45.25V188.91H42.12V212h0l0,0H56.7l1.44-4.33A.08.08,0,0,0,58,207.6Z"/></svg>